<svg width="53" height="53" viewBox="0 0 53 53" fill="none" xmlns="http://www.w3.org/2000/svg"><path d="M26.5 0C11.8649 0 0 11.8649 0 26.5C0 41.1351 11.8649 53 26.5 53C41.1351 53 53 41.1351 53 26.5C53 11.8649 41.1351 0 26.5 0ZM51.2768 26.5C51.2768 40.1831 40.1847 51.2768 26.5 51.2768C12.8153 51.2768 1.72325 40.1831 1.72325 26.5C1.72325 12.8169 12.8169 1.72325 26.5 1.72325C40.1831 1.72325 51.2768 12.8169 51.2768 26.5Z" fill="#6F6F6F"/><path d="M26.5 10.7851V11.6467C34.6893 11.6467 41.3533 18.3091 41.3533 26.5H42.2149C42.2149 17.8214 35.1786 10.7851 26.5 10.7851ZM26.5 41.3533C18.3107 41.3533 11.6467 34.6909 11.6467 26.5H10.7851C10.7851 35.1786 17.8215 42.2149 26.5 42.2149" fill="#6F6F6F"/><path d="M39.3433 15.2568C39.7033 15.6432 40.2221 16.2664 40.5135 16.6451L45.8795 13.2391C45.6115 12.8885 45.1846 12.3556 44.8652 11.9801L41.467 14.2269L41.2349 14.4263L41.4078 14.1739L42.9082 11.1793L41.8472 10.1182L38.851 11.6187L38.5986 11.7916L38.7996 11.5595L41.0479 8.16282C40.6521 7.82627 40.272 7.51777 39.7874 7.14383L36.3814 12.5052C36.813 12.8371 37.3817 13.3248 37.7447 13.6566L40.9513 11.9926L41.157 11.8415L41.0058 12.0471L39.3433 15.2568Z" fill="#6F6F6F"/><path d="M27.1668 8.46199L28.633 5.17753L28.7265 4.88617L28.7 5.19L28.8542 9.57914C29.3684 9.62744 29.8997 9.69911 30.4232 9.78636L30.1848 3.28601C29.4525 3.20499 28.7234 3.14734 27.9942 3.11618L26.5498 6.70134L26.4984 6.96778L26.447 6.70134L25.0042 3.11618C24.275 3.14734 23.5458 3.20499 22.8135 3.28601L22.5751 9.78636C23.0987 9.69911 23.63 9.62899 24.1441 9.57914L24.2984 5.19L24.2719 4.88617L24.3654 5.17753L25.8315 8.46199H27.1668Z" fill="#6F6F6F"/><path d="M15.3083 13.6426C16.1559 12.7499 16.6357 11.7184 15.7881 10.7337C15.327 10.1993 14.5526 10.0824 13.9106 10.3457L13.8468 10.3707L13.867 10.3146C13.9621 10.0606 14.0228 9.25038 13.3326 8.69103C12.996 8.41836 12.5738 8.31709 12.1469 8.36071C11.3507 8.44174 10.7384 8.98551 9.07122 10.8443C8.56795 11.4052 7.83565 12.2902 7.39627 12.8636L11.9755 17.2076C13.4931 15.5279 14.1116 14.9031 15.3083 13.6426ZM9.33298 12.58C10.2554 11.452 11.2354 10.4283 11.6795 10.0232C11.8197 9.89543 11.9724 9.76767 12.1578 9.71781C12.4585 9.63523 12.7686 9.84869 12.8387 10.1572C12.9088 10.4673 12.714 10.7617 12.4975 11.0048C12.0098 11.5548 10.2211 13.4261 10.2211 13.4261L9.33298 12.58ZM11.1263 14.2815C11.1263 14.2815 12.8683 12.4398 13.437 11.8508C13.6629 11.6171 13.8078 11.4753 13.9636 11.399C14.1646 11.3008 14.3843 11.2806 14.5806 11.4115C14.7738 11.5408 14.8626 11.7636 14.8143 11.9848C14.7567 12.2481 14.5417 12.499 14.3641 12.6906C14.1241 12.9477 12.0581 15.1587 12.055 15.1618L11.1263 14.2815Z" fill="#6F6F6F"/><path d="M26.5 10.7851V26.5H10.7851C10.7851 17.8152 17.8152 10.7851 26.5 10.7851Z" fill="#0066B1"/><path d="M42.2149 26.5C42.2149 35.1848 35.1848 42.2149 26.5 42.2149V26.5H42.2149Z" fill="#0066B1"/></svg>